<mxfile host="65bd71144e">
    <diagram id="kcIGn_kX_1L25iIxUXLg" name="Page-1">
        <mxGraphModel dx="1242" dy="845" grid="1" gridSize="10" guides="1" tooltips="1" connect="1" arrows="1" fold="1" page="1" pageScale="1" pageWidth="850" pageHeight="1100" math="0" shadow="0">
            <root>
                <mxCell id="0"/>
                <mxCell id="1" parent="0"/>
                <mxCell id="EZAqd18MQriHtEKbU3QA-1" value="Prover" style="ellipse;whiteSpace=wrap;html=1;aspect=fixed;shadow=1;fontStyle=1;connectable=1;" parent="1" vertex="1">
                    <mxGeometry x="200" y="260" width="80" height="80" as="geometry"/>
                </mxCell>
                <mxCell id="EZAqd18MQriHtEKbU3QA-2" value="Server" style="ellipse;whiteSpace=wrap;html=1;aspect=fixed;shadow=1;fontStyle=1" parent="1" vertex="1">
                    <mxGeometry x="38" y="260" width="80" height="80" as="geometry"/>
                </mxCell>
                <mxCell id="GdnXkJGOJiVmK7E47u4y-43" value="Verifier" style="ellipse;whiteSpace=wrap;html=1;aspect=fixed;shadow=1;fontStyle=1" parent="1" vertex="1">
                    <mxGeometry x="360" y="260" width="80" height="80" as="geometry"/>
                </mxCell>
                <mxCell id="GdnXkJGOJiVmK7E47u4y-45" value="" style="endArrow=classic;startArrow=classic;html=1;rounded=0;entryX=0;entryY=0.5;entryDx=0;entryDy=0;" parent="1" source="EZAqd18MQriHtEKbU3QA-2" target="EZAqd18MQriHtEKbU3QA-1" edge="1">
                    <mxGeometry width="50" height="50" relative="1" as="geometry">
                        <mxPoint x="350" y="490" as="sourcePoint"/>
                        <mxPoint x="400" y="440" as="targetPoint"/>
                    </mxGeometry>
                </mxCell>
                <mxCell id="GdnXkJGOJiVmK7E47u4y-46" value="TLS" style="whiteSpace=wrap;html=1;fillColor=none;strokeColor=none;fontSize=10;" parent="1" vertex="1">
                    <mxGeometry x="126.5" y="286" width="67.5" height="10" as="geometry"/>
                </mxCell>
                <mxCell id="GdnXkJGOJiVmK7E47u4y-49" value="" style="endArrow=classic;html=1;rounded=0;startArrow=classic;startFill=1;" parent="1" edge="1">
                    <mxGeometry width="50" height="50" relative="1" as="geometry">
                        <mxPoint x="280" y="289" as="sourcePoint"/>
                        <mxPoint x="360" y="289" as="targetPoint"/>
                    </mxGeometry>
                </mxCell>
                <mxCell id="10" value="MPC-TLS" style="edgeLabel;html=1;align=center;verticalAlign=middle;resizable=0;points=[];fontSize=10;labelBackgroundColor=none;" parent="GdnXkJGOJiVmK7E47u4y-49" vertex="1" connectable="0">
                    <mxGeometry x="-0.5071" relative="1" as="geometry">
                        <mxPoint x="20" y="-9" as="offset"/>
                    </mxGeometry>
                </mxCell>
                <mxCell id="GdnXkJGOJiVmK7E47u4y-54" value="1" style="ellipse;whiteSpace=wrap;html=1;aspect=fixed;fontSize=10;" parent="1" vertex="1">
                    <mxGeometry x="153.75" y="270" width="13" height="13" as="geometry"/>
                </mxCell>
                <mxCell id="GdnXkJGOJiVmK7E47u4y-56" value="3" style="ellipse;whiteSpace=wrap;html=1;aspect=fixed;fontSize=10;" parent="1" vertex="1">
                    <mxGeometry x="380" y="317.5" width="13" height="13" as="geometry"/>
                </mxCell>
                <mxCell id="GdnXkJGOJiVmK7E47u4y-58" value="2" style="ellipse;whiteSpace=wrap;html=1;aspect=fixed;fontSize=10;" parent="1" vertex="1">
                    <mxGeometry x="313.5" y="320" width="13" height="13" as="geometry"/>
                </mxCell>
                <mxCell id="13" value="Verify" style="rounded=1;whiteSpace=wrap;html=1;fillColor=none;strokeColor=none;fontSize=10;align=left;" parent="1" vertex="1">
                    <mxGeometry x="393" y="304" width="30" height="40" as="geometry"/>
                </mxCell>
                <mxCell id="14" value="" style="endArrow=classic;html=1;entryX=0;entryY=0.625;entryDx=0;entryDy=0;entryPerimeter=0;" parent="1" target="GdnXkJGOJiVmK7E47u4y-43" edge="1">
                    <mxGeometry width="50" height="50" relative="1" as="geometry">
                        <mxPoint x="280" y="310" as="sourcePoint"/>
                        <mxPoint x="360" y="310" as="targetPoint"/>
                    </mxGeometry>
                </mxCell>
                <mxCell id="21" value="&lt;span style=&quot;font-size: 10px;&quot;&gt;Selective disclosure&lt;/span&gt;" style="edgeLabel;html=1;align=center;verticalAlign=middle;resizable=0;points=[];fontSize=10;labelBackgroundColor=none;" parent="14" vertex="1" connectable="0">
                    <mxGeometry x="-0.2624" y="-1" relative="1" as="geometry">
                        <mxPoint x="10" y="29" as="offset"/>
                    </mxGeometry>
                </mxCell>
                <mxCell id="18" value="1" style="ellipse;whiteSpace=wrap;html=1;aspect=fixed;fontSize=10;" parent="1" vertex="1">
                    <mxGeometry x="313.5" y="260" width="13" height="13" as="geometry"/>
                </mxCell>
            </root>
        </mxGraphModel>
    </diagram>
</mxfile>